<svg xmlns="http://www.w3.org/2000/svg" width="300" height="300" version="1.2" viewBox="0 0 224.88 225">
  <defs>
    <clipPath id="a">
      <path d="M2 78h220.9v60H2Zm0 0"/>
    </clipPath>
    <clipPath id="b">
      <path d="M89 92h122v55.85H89Zm0 0"/>
    </clipPath>
  </defs>
  <g clip-path="url(#a)">
    <path fill="#0f0d0b" d="M127.47 78.07h7.88c3.4-.02 6.62.34 9.68 1.93.18.1.34.21.5.35.48.37.95.66 1.56.78.81.08 1.63.07 2.45.06h6.02l4.93-.01a2292.44 2292.44 0 0 1 6.73 0c3.64 0 7.28 0 10.92-.02h10.94l8.72-.01h9.21l4.6-.01h2.9l1.95-.01h2.65c.74 0 1.35.1 2.03.4.5.3.85.61 1.14 1.12.2.4.28.73.28 1.17-.04.52-.2 1.02-.32 1.52l-.1.4-.21.86a182.55 182.55 0 0 0-.8 3.19l-.98 4-.3 1.2-.53 2.14-.07.31-.16.61-1.63 6.63-.46 1.9-.06.24-1.44 5.84-2.03 8.22-.38 1.53-1.16 4.75-.3 1.27-.29 1.17-.13.54-.15.64a5.3 5.3 0 0 1-1.03 2.36 3.3 3.3 0 0 1-1.45.9c-.22.04-.42.04-.65.04h-7.32l-3.02-.01h-16.8l-9.28-.01H151.8l-2.54-.01a123.77 123.77 0 0 0-2.68 0c-1.5-.05-1.5-.05-2.91.42-.23.14-.45.3-.66.46-1.7 1.27-4.26 1.91-6.33 2.15-3 .32-6.06.25-9.08.25h-.7c-5.04.03-10.03-.21-14.52-2.77-.51-.3-.51-.3-.61-.4-.24-.01-.47-.02-.7-.01H92.38l-10.55-.01H77l-22.65-.01h-4.37l-10.94-.01H24.35l-8.21-.01H6.16c-.95 0-1.76-.02-2.65-.41a3.4 3.4 0 0 1-1.23-1.2 2.3 2.3 0 0 1-.19-1.08c.04-.5.18-.98.3-1.47l.09-.36.25-1 .26-1.06.5-2.03.62-2.45.22-.89.05-.21.39-1.56 1.53-6.18.38-1.58.94-3.8.08-.3.35-1.46.79-3.18.08-.32 1.39-5.64.57-2.34.06-.23.79-3.22.6-2.44.37-1.49c.1-.46.22-.92.34-1.38l.12-.5c.2-.82.4-1.63.63-2.44l.05-.2A4 4 0 0 1 14.7 82a3 3 0 0 1 1.4-.8c.32-.05.63-.06.95-.05H33.1l11.77.01h29.2l10.48.02h7.07a3841.14 3841.14 0 0 1 14.41 0h.19a717.71 717.71 0 0 1 7.27 0h1.89a4.5 4.5 0 0 0 2.44-.54l.57-.34c.42-.25.88-.42 1.32-.6l.3-.12c2.43-.96 4.85-1.5 7.46-1.5"/>
  </g>
  <path fill="#e10612" d="m81.61 83.7 9.08-.01h3.27l3.18-.01h4.06c2.5-.02 4.87.27 7.08 1.5a7.15 7.15 0 0 1 2.53 2.67 9.4 9.4 0 0 1 .88 4.45v.18c0 .92-.05 1.81-.2 2.72l.16-.3c1.5-2.95 3.5-5.75 6.14-7.78l.14-.1a13.7 13.7 0 0 1 5.18-2.61l.2-.05a10.4 10.4 0 0 1 5.14-.04l.23.05a12.1 12.1 0 0 1 5.39 3.15c2.41 2.31 3.98 5.45 4.93 8.63.52 1.8.83 3.62 1.04 5.48l.05.44c.1.77.08 1.54.08 2.32v.23a34.79 34.79 0 0 1-4.38 17.23 24.61 24.61 0 0 1-3.06 4.12l-.47.55a14.88 14.88 0 0 1-7.31 4.48l-.21.05c-1.94.5-3.81.4-5.73-.14-2.06-.58-3.83-1.93-5.33-3.42a19.5 19.5 0 0 1-3.23-4.92l-.1-.18a24.24 24.24 0 0 1-1.3-3.59l-.07-.21a29.71 29.71 0 0 1-.8-12.16l.03-.29c.17-1.26.38-2.5.67-3.75l-.14.21c-.5.76-1.06 1.43-1.7 2.08l-.2.2a12.55 12.55 0 0 1-5.25 2.86c-.3.06-.3.06-.4.18l.26.08c1.01.29 1.93.68 2.71 1.4a7.25 7.25 0 0 1 1.92 4.31l.02.2c.2 2.36-.64 4.8-1.27 7.05l-.59 2.32c-.13.56-.28 1.12-.43 1.68-.62 2.3-.8 4.4-.88 6.83h-12.5c-.29-2.66.53-5.4 1.22-7.96.27-1 .49-2.01.72-3.01l.06-.28.07-.29c.21-.95.44-1.9.67-2.83.15-.6.29-1.19.41-1.78l.06-.21a3.7 3.7 0 0 0-.15-1.78c-.14-.36-.3-.61-.6-.86a3.56 3.56 0 0 0-1.66-.66c-.67-.05-1.33-.05-2-.06h-.53c-.44-.02-.88-.02-1.32-.02l-.03.18c-.1.55-.21 1.1-.34 1.64l-.06.25-.2.8-.06.3c-.57 2.37-1.17 4.73-1.76 7.1-.2.77-.4 1.53-.58 2.3l-.09.34-.04.18-.29 1.12-1.36 5.44H69.82c.06-.43.1-.82.2-1.24l.07-.3.08-.32.08-.35c.32-1.36.66-2.7 1-4.06l.28-1.1.7-2.79.75-3 .28-1.1c.48-1.9.48-1.9.93-3.81.3-1.36.65-2.7.99-4.05l.27-1.1.76-3.03.7-2.79.28-1.09c.34-1.36.68-2.73 1-4.1.27-1.24.59-2.47.9-3.7l.27-1.07.5-2 .57-2.3c.4-1.56.8-3.13 1.18-4.7m-64.82-.09h17.56l-.04 1.04-.01.3c-.03.76-.07 1.53-.12 2.29l-.02.24-.02.26-.03.55-.07 1.19-.13 1.98c-.23 3.92-.23 3.92-.35 5.7l-.02.34-.04.67c-.16 2.35-.3 4.7-.43 7.06v.19l-.05.72-.12 2.04-.02.4-.05.74a33.8 33.8 0 0 0-.06 2.02c.92-2.07 1.84-4.14 2.74-6.21l1-2.3.5-1.15.7-1.59a2586.9 2586.9 0 0 1 4.12-9.4l.7-1.6.4-.93.1-.23 1.01-2.32.09-.18.37-.88.13-.3.11-.27c.1-.2.1-.2.18-.28h17.56l-.05.2-.83 3.51a90.45 90.45 0 0 1-.79 3.25c-.04.2-.1.4-.15.59l-.38 1.54-.39 1.53-.08.3-1.33 5.3-.12.51c-.23.93-.46 1.85-.67 2.77a429.68 429.68 0 0 1-1.25 5.11l-.74 2.96-.68 2.7-.27 1.07c-.34 1.35-.68 2.7-.98 4.05-.27 1.16-.56 2.32-.86 3.48l-.24.97-.46 1.84-.63 2.5-.98 3.9H39.07c.1-.78.1-.78.16-1.04l.04-.19.05-.19.05-.2.18-.69.12-.49c.1-.44.22-.87.33-1.31l.27-1.1 1.35-5.38.06-.22.5-1.97.18-.71a78.26 78.26 0 0 0 .57-2.35 292.24 292.24 0 0 1 1.57-6.44l.8-3.22c.3-1.17.6-2.34.88-3.5l.38-1.52.23-.94.11-.43.15-.6.08-.33c.07-.24.07-.24.06-.43l-.12.28c-.74 1.7-1.48 3.39-2.24 5.08-.53 1.17-1.04 2.34-1.56 3.52l-1.66 3.78-.11.25-.55 1.25-1.1 2.48-.11.25a1445.42 1445.42 0 0 0-3.4 7.7l-.77 1.74-1.1 2.48-1.96 4.45h-9.6c0-.85 0-1.68.05-2.52l.02-.32.06-.86.1-1.75.02-.2a801.81 801.81 0 0 0 .42-7.64l.01-.26.28-4.9v-.2l.06-.91.01-.19.02-.36.17-2.9.01-.2.1-1.81.23-4 .02-.32.08-1.48.04-.52v-.23c.03-.36.04-.73.04-1.1v-.41l-2.47 9.86-.29 1.13-.58 2.32-.27 1.1c-.38 1.5-.75 3-1.1 4.53-.24 1.08-.51 2.15-.78 3.23l-.17.68-.4 1.58-.44 1.79-.7 2.8-1.01 4.06H4.82l1.4-5.62.52-2.28.4-1.6.06-.27.07-.28.15-.6.31-1.24.39-1.56c.85-3.44.85-3.44 1.27-5.07l.07-.28.33-1.28c.24-.94.46-1.89.68-2.83.23-1.02.48-2.02.73-3.03l.15-.6a194.66 194.66 0 0 0 .7-2.82l1.56-6.18c.25-.98.5-1.96.72-2.95.17-.75.35-1.49.54-2.23l.04-.18.29-1.12.47-1.87c.2-.78.4-1.55.58-2.33l.23-.98.08-.35.08-.31c.06-.23.06-.23.15-.32m141.71 0h17.56c0 1.39 0 1.39-.04 1.98l-.01.2-.05.63-.03.47-.06 1c-.07.9-.12 1.81-.18 2.72l-.02.29-.4 6.38-.01.27-.12 1.91-.01.27-.25 4.07-.06.9-.16 2.55-.06 1.04-.03.48c-.05.86-.1 1.71-.08 2.57l2.17-4.91 1.62-3.72.1-.23.84-1.9.84-1.9 1.5-3.44 2.24-5.09 1.3-2.94.88-2.03.15-.32.24-.56.1-.24.09-.2c.07-.16.07-.16.16-.25a13 13 0 0 1 .67 0h16.81c-.1.49-.2.97-.32 1.44l-.08.31-.08.33-.08.35-.33 1.29-.31 1.26-.05.18-.5 2.04-.04.18c0 .06-.02.12-.04.18-.41 1.79-.85 3.56-1.3 5.34l-.05.2-.82 3.25-.71 2.83-.26 1.02-.89 3.66c-.3 1.36-.64 2.7-.98 4.06-.1.36-.2.73-.28 1.1l-.76 3.03-.7 2.78-.28 1.1c-.35 1.39-.7 2.78-1.02 4.19-.2.86-.4 1.73-.62 2.59l-.11.43-.4 1.54-.88 3.5h-11.53c.1-.58.2-1.14.35-1.7l.05-.22.17-.66.11-.47.25-.99.31-1.24c.38-1.5.75-3.01 1.14-4.51.23-.88.45-1.77.64-2.66.3-1.28.62-2.55.93-3.82l.2-.8.84-3.31.14-.52c.24-.95.48-1.9.7-2.87.28-1.29.6-2.57.93-3.85l.26-1.04.4-1.59.66-2.65.13-.53-1.88 4.25-1.7 3.85-1.7 3.88-1.71 3.87a837.52 837.52 0 0 0-3.54 8.02l-1.5 3.42-1.91 4.33-.14.3-.68 1.5h-9.62c.1-2.72.1-2.72.16-3.75l.03-.36a77.9 77.9 0 0 1 .1-1.76c.1-1.96.22-3.92.34-5.87.12-1.82.22-3.63.3-5.45l.31-5.27c.12-1.91.22-3.82.32-5.73.07-1.3.14-2.59.23-3.88l.02-.28.02-.23v-.84l-.04.2-.7 2.83-.05.18-.33 1.3-.43 1.75-.08.32-.14.57c-.17.66-.32 1.33-.47 1.99-.27 1.18-.56 2.35-.85 3.52l-.16.64-.39 1.54-.3 1.24-2.2 8.72-2.15 8.63h-10.83l.68-.69c.5-.48.97-.97 1.41-1.5l.12-.15a36.28 36.28 0 0 0 6.79-13.2l.09-.31c.19-.65.35-1.29.47-1.94l.06-.29c.95-5 1.21-10.26.16-15.26l-.06-.33c-.38-1.8-.38-1.8-.93-3.55a2.16 2.16 0 0 1-.06-1.21l.26-1.05.08-.3.25-.97c.36-1.43.72-2.85 1.04-4.29l.45-1.86.08-.32c.2-.76.2-.76.29-.96"/>
  <path fill="#fff" d="m128.45 84.32.23.05a12.1 12.1 0 0 1 5.39 3.15c2.41 2.31 3.98 5.45 4.93 8.63.52 1.8.83 3.62 1.04 5.48l.05.44c.1.77.08 1.54.08 2.32v.23a34.79 34.79 0 0 1-4.38 17.23 24.61 24.61 0 0 1-3.06 4.12l-.47.55a14.88 14.88 0 0 1-7.31 4.48l-.21.05c-1.94.5-3.81.4-5.73-.14-2.06-.58-3.83-1.93-5.33-3.42a19.5 19.5 0 0 1-3.23-4.92l-.1-.18a24.24 24.24 0 0 1-1.3-3.59l-.07-.21a29.78 29.78 0 0 1-.8-12.16l.03-.28c.47-3.63.47-3.63 1.34-5.16.29-.5.47-1.04.66-1.58l.19-.51c.25-.67.44-1.33.6-2.01.3-1.24.71-2.27 1.37-3.36l.13-.22a21.88 21.88 0 0 1 5.29-6.19l.14-.1a13.7 13.7 0 0 1 5.18-2.61l.2-.05a10.4 10.4 0 0 1 5.14-.04"/>
  <path fill="#e10612" d="M207.43 83.61h12.75a23.7 23.7 0 0 1-.4 1.9l-.07.27-.14.57-.23.9-.49 1.94-.56 2.23-.23.88c-.23.92-.45 1.83-.66 2.75-.31 1.38-.66 2.74-1 4.1l-.28 1.1-.76 3.04-.7 2.78-.27 1.09c-.48 1.91-.48 1.91-.94 3.83-.3 1.36-.64 2.7-.98 4.05l-.28 1.1-.76 3.03-.7 2.78-.27 1.1c-.48 1.88-.48 1.88-.92 3.79-.39 1.65-.82 3.3-1.24 4.95h-12.76c.46-2.04.92-4.08 1.43-6.1l.16-.63.32-1.3.4-1.62 1.29-5.11.06-.26.3-1.16c.23-.9.44-1.79.65-2.69.23-1.01.48-2.02.73-3.03l.15-.6.31-1.24.39-1.55c.85-3.44.85-3.44 1.27-5.07l.07-.28.33-1.29c.24-.94.47-1.88.68-2.83.23-1.02.49-2.04.74-3.05l.15-.6.32-1.27.39-1.58.46-1.83c.42-1.7.85-3.4 1.29-5.09m-141.8.1h12.75c-.2 1.27-.2 1.27-.34 1.84l-.04.19-.16.6-.1.45-.3 1.17-.31 1.25-1.19 4.7-.05.21-.15.6-.05.2-.2.77c-.44 1.74-.87 3.49-1.28 5.24-.64 2.67-1.32 5.33-1.99 8l-1.36 5.43a87.7 87.7 0 0 0-.67 2.8c-.31 1.37-.66 2.73-1 4.1l-.28 1.1-.46 1.83-.52 2.11-.52 2.04-.21.87c-.1.34-.17.68-.26 1.02l-.1.37-.12.5-.07.3c-.06.21-.06.21-.15.39H53.83c.1-.89.1-.89.2-1.32l.08-.3.08-.3.08-.34.23-.9.23-.94.93-3.67.09-.32c.14-.6.3-1.17.44-1.75l.6-2.46c.26-1.15.54-2.3.83-3.45l.15-.63.32-1.3.41-1.63c.9-3.6.9-3.6 1.29-5.1l.06-.26.3-1.16c.23-.9.44-1.8.64-2.69.23-1.01.48-2.02.74-3.03l.15-.6.3-1.24.4-1.56c.55-2.24 1.11-4.48 1.69-6.72.22-.85.42-1.7.62-2.55.29-1.3.61-2.58.94-3.87"/>
  <g clip-path="url(#b)">
    <path fill="#0f0d0b" d="m92.1 92.92 1.58-.02h.53c1.13-.03 2.16-.04 3.2.49.43.25.7.57.96.99.36.7.33 1.4.3 2.19a10.7 10.7 0 0 1-1.6 4.6c-.2.3-.44.6-.7.87l-.13.17a5.39 5.39 0 0 1-2.37 1.4l-.64.19-.18.05c-.73.18-1.48.14-2.23.13H89.4c.08-.56.19-1.1.34-1.64.2-.8.4-1.58.58-2.38.3-1.32.64-2.64.97-3.96l.2-.75.4-1.57.06-.27a7 7 0 0 1 .15-.5m92.08 44.88c.52.26 1 .58 1.4 1.02l.18.35c-.77.59-1.53 1.17-2.36 1.67l-.17-.24c-.2-.25-.39-.37-.68-.5a2.61 2.61 0 0 0-1.34-.14c-.59.15-1.05.38-1.52.77l-.14.1h-.17l-.07.16c-.11.21-.24.41-.36.61-.3.51-.42.92-.48 1.5.02.46.17.86.39 1.25.24.27.53.47.87.61.46.07.94.1 1.4-.06a8.7 8.7 0 0 0 1.57-.9l.58.61.16.17c.37.4.7.8 1 1.23a7.85 7.85 0 0 1-3.35 1.64c-.87.13-1.76.09-2.6-.21a5.4 5.4 0 0 1-2.08-1.55 4.81 4.81 0 0 1-.87-2.16 5.63 5.63 0 0 1 .53-2.9 6.87 6.87 0 0 1 2.45-2.64 5.98 5.98 0 0 1 5.66-.4m-30.4 0c.52.27 1 .6 1.4 1.03l.18.35c-.77.59-1.54 1.17-2.36 1.67l-.17-.24c-.2-.25-.4-.37-.68-.5a2.6 2.6 0 0 0-1.34-.14 3.64 3.64 0 0 0-2.69 2.6 2.9 2.9 0 0 0 .22 1.59c.2.35.45.52.79.73.44.18.95.12 1.42.08.53-.14.96-.45 1.4-.77l.17-.1h.26c.13.1.13.1.26.24l.15.16.14.16.16.17c.34.39.66.77.95 1.2a7.71 7.71 0 0 1-3.35 1.63c-.88.13-1.76.09-2.6-.21a5.08 5.08 0 0 1-2.07-1.54 4.87 4.87 0 0 1-.89-2.17 5.57 5.57 0 0 1 .54-2.9 7.02 7.02 0 0 1 2.44-2.64 6.02 6.02 0 0 1 5.67-.4m42.02 1.64 1.87-.01h.63l.91-.01h.28c.56 0 1.04.05 1.56.29.42.27.77.61 1 1.06.2.54.2 1.1.13 1.66a2.9 2.9 0 0 1-.72 1.43c-.32.34-.64.6-1.02.85l-.26.17.13.24.5.85.21.36.32.53.1.17.22.4v.09c-1.72.15-1.72.15-2.53 0-.2-.11-.3-.2-.43-.39a5.16 5.16 0 0 1-.3-.67c-.1-.29-.26-.55-.42-.81l-.14-.29-.2-.22a2.79 2.79 0 0 0-.7-.08l-.04.2-.17.93-.06.32-.06.31-.06.29c-.05.23-.05.23-.13.4h-2.28c.06-.52.13-1.01.24-1.52l.04-.21.14-.68.1-.47.21-.99.27-1.27.2-.97.1-.47.13-.65.04-.2c.1-.44.1-.44.2-.64m1.83 2.1-.13.56-.07.31c-.07.27-.07.27-.06.54.28.02.55.03.83.03l.24.02a3 3 0 0 0 .68-.05c.24-.14.42-.3.6-.52.11-.19.11-.19.12-.44l-.03-.27c-.23-.18-.23-.18-.46-.2l-.24.01h-.26l-.27.01h-.95m-32.24-2.1 1.86-.01h.63l.91-.01h.29c.56 0 1.04.05 1.55.29.43.27.78.61 1.01 1.06.2.54.19 1.1.13 1.66-.11.57-.34.98-.71 1.42-.38.42-.84.72-1.3 1.03l.55.94.15.26c.31.53.31.53.65 1.05l.13.21v.18c-.82.1-1.71.2-2.53 0a2.4 2.4 0 0 1-.76-1.02l-.2-.44c-.08-.2-.19-.41-.3-.61l-.1-.17c-.12-.15-.12-.15-.3-.2-.22-.03-.22-.03-.52-.02l-.03.18c-.12.77-.3 1.52-.5 2.28h-2.27c.1-.8.1-.8.15-1.06l.04-.19.04-.2.05-.2.14-.7.1-.47.2-1 .27-1.29.2-.99.1-.47.14-.66.04-.2c.1-.45.1-.45.2-.65m1.82 2.1-.12.56-.08.31c-.07.27-.07.27-.06.54l.84.03.24.02c.23 0 .44 0 .67-.05.24-.14.43-.3.61-.52.1-.19.1-.19.11-.44l-.02-.27c-.24-.18-.24-.18-.47-.2l-.24.01h-.26l-.27.01h-.95m36.97-2.1h6.55l-.44 2.02-4.2.09-.17.79h3.76c-.1 1-.1 1-.22 1.5l-.07.29c-.06.23-.06.23-.15.32l-.35.01h-.23l-.5.02-.8.01-.54.01-1.34.03-.17.97h4.1c-.08.68-.21 1.35-.34 2.02h-6.55c.5-2.63.5-2.63.72-3.7l.07-.37.15-.73.2-.95.15-.73.1-.52.07-.31.05-.28.15-.49m-14.86 0h2.71l.8 4.57.34 1.93.13.74.04.23c.09.5.09.5.09.6h-2.63l-.08-1.05h-2.88l-.18.44-.35.62h-2.62c.13-.4.23-.64.43-.98l.16-.25.16-.28.27-.44.18-.31c.34-.54.66-1.1.98-1.64l.35-.59.17-.3.57-.96.72-1.22.14-.24.5-.87m.61 3.51-.48.78-.14.23-.13.2-.12.2c-.1.17-.1.17-.09.35h1.4l-.12-.83-.04-.24-.03-.23a3.92 3.92 0 0 1-.03-.2l-.04-.17Zm-31.01-3.5h2.7l.8 4.56.35 1.93.12.74.04.23c.1.5.1.5.1.6h-2.63l-.08-1.05h-2.9l-.16.44-.35.62h-2.63c.16-.39.33-.73.54-1.09l.1-.19.77-1.32 1.02-1.7.09-.16.8-1.36.47-.79.13-.23.13-.22.11-.2.48-.82m.6 3.51-.47.78-.14.23-.13.2-.12.2c-.1.17-.1.17-.1.35h1.4c-.03-.28-.07-.55-.12-.83l-.03-.24-.03-.23-.03-.2-.05-.17Zm0 0"/>
  </g>
  <path fill="#fff" d="M125.05 103.75c.36.14.68.37.95.66.48.63.72 1.33.87 2.1a6.17 6.17 0 0 1-.49 3.07 4.1 4.1 0 0 1-1.27 1.72c-.33.22-.62.38-1.02.41-.77.02-.77.02-1.08-.08a3.9 3.9 0 0 1-1.2-1.17 5.66 5.66 0 0 1 .28-5.26 4.6 4.6 0 0 1 1.35-1.36c.5-.22 1.08-.21 1.6-.09"/>
  <path fill="#0f0d0b" d="M121.9 118.63c.24.1.42.24.6.44.25.35.44.71.53 1.14.07.9-.08 1.68-.32 2.55l-.1.36c-.2.74-.4 1.49-.62 2.23-.23.8-.43 1.6-.62 2.4a5.1 5.1 0 0 1-2.1-.44l-.25-.08-.19-.18c-.07-.58.03-1.19.1-1.76l.04-.25.1-.79.08-.51.2-1.52.04-.25.1-.72.04-.21c.09-.61.22-1.13.58-1.65.23-.3.44-.48.77-.68.36-.1.65-.16 1.01-.08m8.79-4.61c.31.07.57.2.82.4.15.2.27.37.38.58l.2.36.1.18.43.74c.1.19.22.37.33.56l.46.79.12.2.23.38.2.35.26.41.09.27c-.08.28-.22.5-.37.75l-.12.21c-.9 1.52-.9 1.52-1.52 1.94-1.32-1.41-1.32-1.41-1.9-2.07l-.44-.48c-1.14-1.23-1.14-1.23-1.33-2.02a4.4 4.4 0 0 1 .3-2.3c.25-.45.56-.79.96-1.12.27-.1.5-.12.8-.13m6.41-14.79c.23.85.43 1.68.53 2.55l.04.28c.02.3.02.56-.04.86-.26.31-.57.49-.92.69l-.58.35-.3.18-1.42.92c-.17.12-.33.23-.5.33l-.2.14c-.27.16-.47.2-.78.23-.2 0-.35-.03-.54-.1a1.64 1.64 0 0 1-.57-.58 3.77 3.77 0 0 1-.42-2c.04-.56.2-1.02.5-1.5.25-.38.53-.63.92-.85.27-.12.55-.22.82-.32l.24-.09.74-.26.74-.27.46-.17.21-.08.2-.07c.14-.05.29-.1.43-.17.18-.07.18-.07.44-.07m-21.31-5.96.29.29.32.33c.36.35.7.71 1.03 1.1l.48.52c1.4 1.47 1.4 1.47 1.63 2.32.09.82-.01 1.53-.35 2.28a2.9 2.9 0 0 1-.96 1.14 2 2 0 0 1-.64.12h-.2a1.4 1.4 0 0 1-.6-.24c-.32-.33-.52-.74-.75-1.14l-.17-.3a47.59 47.59 0 0 0-.85-1.44l-.3-.51-.14-.24-.37-.64-.11-.18c-.1-.18-.18-.33-.23-.52.07-.28.07-.28.23-.55l.18-.29.2-.3.17-.28c.34-.53.7-1.01 1.14-1.47m11-5.53c.86-.05 1.57.12 2.34.5l.2.11c0 .54-.03 1.04-.1 1.57l-.04.25-.11.78-.07.51-.1.77-.17 1.3-.03.27-.06.48c-.08.65-.3 1.17-.62 1.73-.22.28-.43.47-.71.68-.36.12-.68.13-1.05.09a2.7 2.7 0 0 1-.72-.55c-.32-.5-.43-1-.47-1.6.02-.8.25-1.54.48-2.3.22-.75.41-1.5.6-2.26.4-1.59.4-1.59.64-2.33m-11.46 21.91c.18.03.18.03.46.17.37.3.62.61.84 1.04.19.55.16 1.14.1 1.71a3.72 3.72 0 0 1-.73 1.61c-.37.39-.79.54-1.28.72l-.24.1-.52.19-.92.34a68.84 68.84 0 0 1-.95.36l-.3.11-.25.1c-.22.07-.22.07-.48.07l-.22-.87-.05-.24a8.6 8.6 0 0 1-.24-1.42c-.01-.2-.01-.2-.07-.46a1.3 1.3 0 0 1 .06-.7c.17-.15.36-.28.56-.4l.36-.23.2-.12.92-.6.37-.25.75-.5.36-.24.17-.1c.4-.27.62-.4 1.1-.39m17.74-18.31c.47.2.75.57 1.06.96.3.44.6.88.78 1.39 0 .44-.22.75-.44 1.12l-.29.52-.16.28-.5.93-.09.16-.41.8c-.98 1.85-.98 1.85-1.6 2.26-.26.13-.48.19-.77.2-.3-.04-.5-.15-.74-.32a2.1 2.1 0 0 1-.5-.76l-.1-.19a4.62 4.62 0 0 1-.03-2.1c.2-.64.61-1.14 1.03-1.65l.83-1.08.36-.47.18-.24.82-1.09.15-.2c.33-.43.33-.43.42-.52m-10.66-3.07c.27.9.5 1.82.7 2.75l.32 1.3c.55 2.04.55 2.04.34 3.02-.06.2-.13.37-.22.56l-.07.18c-.19.44-.45.71-.82 1.02-.19.14-.3.2-.54.23-.63.03-.63.03-.94-.11a1.94 1.94 0 0 1-.6-.81c-.25-.64-.3-1.3-.35-1.98l-.05-.41-.1-1.07-.08-.8-.16-1.6-.03-.27a6.65 6.65 0 0 1-.02-.79 5.7 5.7 0 0 1 1.93-1.14c.24-.06.44-.08.7-.08m-5.01 27.22c.3.03.48.07.76.2.35.34.6.72.75 1.18.06.73.13 1.61-.1 2.32-.3.57-.76 1.07-1.17 1.56l-.5.65-1.14 1.53-.18.24-.18.23-.15.21c-.16.2-.33.37-.51.55a8.12 8.12 0 0 1-1.69-2.36l-.06-.28c.08-.25.08-.25.24-.52l.16-.3.18-.32.18-.33.38-.66.75-1.39c.98-1.83.98-1.83 1.56-2.32.26-.14.43-.18.72-.2m9.08 2.58c.2.04.2.04.5.18.35.31.6.62.75 1.06.15.54.17 1.1.22 1.65l.04.37.07.77.09 1 .07.75.04.37.04.5.03.3c.02.3.03.6.02.9-.38.51-1.18.8-1.75 1.05a2.1 2.1 0 0 1-.88.18l-.3-1.26-.36-1.54-.07-.29-.13-.55c-.1-.41-.2-.83-.33-1.24a4.53 4.53 0 0 1-.15-1.32v-.2c0-.6.15-1.11.41-1.65.25-.36.48-.68.85-.92.28-.12.54-.12.84-.1m-15-15.85c.88.03 1.75.1 2.62.21l.28.03c1.2.15 1.2.15 1.65.28.25.2.25.2.44.44l.18.25c.29.5.35.94.37 1.5a3.8 3.8 0 0 1-.55 1.88c-.2.32-.38.56-.7.76l-.17.11c-.27.1-.51.1-.8.07a8.8 8.8 0 0 1-.87-.34l-.24-.1-.52-.23-.8-.34-.5-.21-.24-.1-.22-.1-.2-.08c-.16-.08-.16-.08-.42-.26.08-1.31.33-2.51.7-3.77m21.84 5.44c.31.11.61.25.91.39l.54.24.28.12c.53.24 1.07.45 1.61.67l.23.1.2.08c.16.06.16.06.25.15.02.6-.05 1.15-.16 1.74l-.04.26c-.12.61-.28 1.2-.5 1.78-.85.03-1.67-.05-2.51-.16l-.45-.05c-1.2-.13-1.2-.13-1.66-.36-.3-.24-.49-.52-.66-.87a3.24 3.24 0 0 1-.18-1.28v-.23c.01-.48.05-.9.27-1.35.3-.46.63-.84 1.1-1.15.29-.1.45-.11.77-.08m-8.4-5.09c.48.11.87.32 1.25.62.61.59.97 1.3 1.23 2.1.15.63.17 1.23.17 1.87v.26a6.3 6.3 0 0 1-.43 2.34l-.07.18a6.54 6.54 0 0 1-.83 1.49l-.14.2c-.42.53-.94.85-1.55 1.12-.45.17-.89.25-1.37.17a3.68 3.68 0 0 1-1.63-1.1c-.5-.6-.78-1.45-.96-2.21a8.61 8.61 0 0 1 .51-4.34 5.7 5.7 0 0 1 1.82-2.26c.67-.4 1.24-.5 2-.44m-1.73 1.44a4.82 4.82 0 0 0-1.53 2.01 6.4 6.4 0 0 0-.31 3.13c.1.62.33 1.2.68 1.72.26.31.55.52.9.74.44.15.91.12 1.39.09.27-.08.47-.2.7-.36l.17-.13c.6-.47.94-1.08 1.24-1.78.35-.93.52-1.91.42-2.91a4.78 4.78 0 0 0-.87-2.11 2.89 2.89 0 0 0-.85-.64c-.7-.14-1.33-.16-1.94.24"/>
  <path fill="#fff" d="M123.97 79.46h.18c1.03 0 2 .12 2.98.38l.26.06c2.28.56 4.36 1.7 6.06 3.3l1.02 1.03-.08.18-.15-.15a12.64 12.64 0 0 0-7.02-3.19l-.24-.05a6.68 6.68 0 0 0-1-.06h-1.12c-1.24 0-2.45.06-3.67.29l-.25.04c-2.17.41-4.59 1.1-6.31 2.55l-.6.57-.17-.1a17.58 17.58 0 0 1 5.41-3.94l.21-.1a9.2 9.2 0 0 1 1.54-.49l.23-.06c.9-.22 1.79-.26 2.72-.26m-12.21 47.68.78.79c.77.8 1.55 1.55 2.45 2.2l.16.1c1.4 1 3 1.88 4.73 2.09l.71.01h1.06c1.6 0 3.01-.19 4.52-.72l.48-.16.31-.1c-.18.2-.34.32-.58.43l-.18.09-.2.1-.2.08c-1.56.71-3.07.9-4.76.91h-.18a8.58 8.58 0 0 1-4.4-1.06 13.88 13.88 0 0 1-2.52-1.95l-.22-.2a13.8 13.8 0 0 1-1.52-1.82l-.16-.2a5.1 5.1 0 0 1-.28-.42Zm0 0"/>
  <path fill="#0f0d0b" d="M120.34 112.34c.28.07.45.13.68.32.18.22.26.34.35.61.06.52.07 1-.08 1.5-.16.32-.33.57-.56.84-.29.15-.51.18-.84.16-.18-.04-.18-.04-.44-.23a2.16 2.16 0 0 1-.35-.69 3.52 3.52 0 0 1 .15-1.66c.25-.43.6-.75 1.09-.85m-1.15-8.41c.3.05.45.1.7.3.17.23.26.36.34.62.07.56.05 1.09-.14 1.62-.12.26-.24.47-.44.67-.28.16-.4.2-.69.22-.2 0-.2 0-.39-.05-.26-.2-.4-.35-.53-.64a3.16 3.16 0 0 1-.08-1.38c.14-.45.35-.83.7-1.15.26-.17.26-.17.53-.21m10.31-.21c.34.08.34.08.5.21.18.2.33.41.45.66a3.5 3.5 0 0 1-.15 1.67 2.5 2.5 0 0 1-.63.78c-.18.1-.18.1-.47.12l-.32-.03a2.11 2.11 0 0 1-.6-.71 2.78 2.78 0 0 1-.1-1.3c.07-.36.18-.6.41-.89.28-.27.52-.47.91-.51m-4.94-5.41c.3.05.3.05.54.18.26.28.38.55.46.92.06.45.06.87-.08 1.3-.15.33-.32.6-.56.86a1.2 1.2 0 0 1-.58.16 1.18 1.18 0 0 1-.6-.17 1.95 1.95 0 0 1-.45-.92c-.06-.43-.06-.8.08-1.21.16-.34.33-.64.6-.91.28-.16.28-.16.6-.21m2.29 14.06c.27.02.27.02.5.11.25.2.37.4.5.68.13.43.1.85.02 1.3a2.6 2.6 0 0 1-.66 1.1c-.26.17-.26.17-.55.21-.32-.04-.32-.04-.61-.23a1.4 1.4 0 0 1-.41-.69 4.2 4.2 0 0 1 .06-1.54c.14-.3.28-.47.52-.69.23-.16.34-.22.63-.25m8.66-17.35c.5.41.68 1.2.9 1.8.24.69.24.69.24 1.1-.75.3-1.5.6-2.26.87l-.23.08-.22.07-.2.07c-.15.05-.15.05-.32.05.14-.53.4-.99.67-1.46l.14-.26c.3-.53.59-1.06.9-1.58l.38-.74m-20.97 21.32.27.1-.2.35-.12.23-.29.52-.74 1.38-.15.26-.27.52-.12.23-.11.2-.1.16-.18.1a11 11 0 0 1-.77-1.8l-.09-.23-.07-.22-.07-.2c-.04-.19-.04-.19-.03-.38l.07-.16c.15-.1.15-.1.35-.15l.22-.08.23-.07.48-.16.24-.08c.41-.14.82-.3 1.22-.45Zm3.76 5.36h.09c-.06 1-.19 2-.31 3l-.07.51-.15 1.23c-.57-.1-.94-.43-1.4-.8-.47-.4-.47-.4-.6-.6 0-.17 0-.17.08-.36l.4-.54.27-.32.14-.18.97-1.25.15-.2.14-.17c.11-.14.11-.14.29-.32m19.3-17.2h.18c.01.83.01 1.67-.04 2.5v.19c-.02.26-.05.48-.13.73a4 4 0 0 1-1.05-.35l-.18-.07-.55-.24-.37-.17-.91-.4c.22-.23.43-.41.69-.58l.2-.13.2-.14.42-.28.21-.14c.38-.25.76-.52 1.13-.78Zm-7.24-15.53c.61.17 1.02.54 1.48.96.19.2.36.4.53.62l-1.22 1.55-.12.16-.25.31-.84 1.1-.1.12h-.1c.07-.89.17-1.77.28-2.66l.1-.74.05-.48.02-.23c.07-.52.07-.52.17-.71m2.53 25.53c1.08.05 2.15.14 3.23.27-.12 1.12-.7 2.16-1.22 3.16a7.1 7.1 0 0 1-.66-.96l-.17-.3-.09-.15-.26-.47c-.3-.5-.57-1.02-.83-1.55m-19.66-17.02c.29.33.5.69.71 1.07l1.03 1.8.27.46v.1c-.71.01-1.4-.05-2.1-.14l-.33-.04-.8-.1c.03-.67.28-1.2.56-1.82l.13-.3c.33-.72.33-.72.53-1.03m10.31 25.62c.13.24.22.47.29.74l.05.23.07.25.06.26.14.53.2.82.13.53.06.24.06.23.05.2c.03.18.03.18-.06.45-.51.17-1 .2-1.53.18h-.74c.14-.79.34-1.55.55-2.31l.18-.66.12-.43.05-.2c.1-.36.2-.71.32-1.06m-4.8-32.81h.17l.15 1.73.05.6.08.84.02.27.02.25.02.22.01.65c-.44-.37-.83-.75-1.22-1.17l-.16-.18c-.39-.42-.77-.85-1.15-1.29.2-.4.47-.66.8-.96l.15-.14a8 8 0 0 1 1.06-.82m10.13 30.27h.17c.13.12.13.12.28.3.38.45.78.87 1.17 1.3.32.33.63.67.91 1.03-.34.81-1.24 1.4-1.92 1.93l-.17.09c-.13-1.05-.23-2.1-.32-3.17l-.04-.43-.08-1.05m-3.72-32.92h.2l.46.01a11.1 11.1 0 0 1-.43 1.89l-.27 1.02-.31 1.21-.06.2-.06.16-.18.08-1.05-4.3c.56-.27 1.1-.27 1.7-.27m-14.62 19.84c.37.06.7.2 1.05.35l.17.08.55.23.37.17.91.4c-.46.47-.46.47-.72.65l-.16.1-.16.1a33 33 0 0 0-1.55 1.08l-.38.27h-.17v-1.04l-.01-.53a14 14 0 0 1 .1-1.86"/>
  <path fill="#fff" d="M140.59 91.07c.42-.06.8-.08 1.22 0 .3.26.5.56.7.9l.31.5c.2.29.39.58.56.89v.17h-1.74l-.28-.6c-.22-.48-.45-.95-.7-1.42-.07-.17-.07-.17-.07-.44m2.7 8.07c.74.07 1.46.17 2.19.27.13.4.2.72.18 1.14l-.8-.08-.23-.02a4.3 4.3 0 0 1-1.16-.25Zm-1.3-4.82h.76c.18 0 .36 0 .54-.02.23 0 .4 0 .62.1.22.3.34.62.43.97v.27l-2-.1c-.35-1.02-.35-1.02-.35-1.22m1.05 3.16c.7.05 1.4.1 2.1.18.1.4.18.72.16 1.14-.7-.06-1.4-.15-2.09-.27-.1-.37-.17-.66-.17-1.05m-.44-1.4h2c.3.69.3.69.27 1.05a17.3 17.3 0 0 1-2.01-.1c-.26-.56-.26-.56-.26-.96m1.22 5.97.85.17.25.04.23.05.22.04c.2.05.2.05.55.23v.88a27.7 27.7 0 0 1-2.01-.44Zm-.17-1.23.9.13.25.04.25.03.23.03c.2.04.2.04.46.12v.8c-.69-.06-1.33-.19-2-.36Zm0 0"/>
  <path fill="#ebebeb" d="M138.93 88.18c.36.14.62.4.9.67l.15.14c.37.35.74.7 1.05 1.12v.09h-1.05l-.43-.82-.12-.23-.12-.22-.1-.2-.28-.55"/>
  <path fill="#440d0e" d="m189.08 98 .08.18c-.04.23-.1.45-.16.67l-.05.19c-.05.15-.1.3-.13.46l-.27-.18c.15-.46.3-.89.53-1.32"/>
  <path fill="#d2d2d1" d="m133.6 83.44.29.25.16.13c.15.13.29.27.42.41l-.08.18-.4-.34-.22-.19-.17-.18Zm0 0"/>
  <path fill="#ebebeb" d="m115.25 82.91.18.09c-.16.22-.33.43-.53.61l-.17-.17Zm0 0"/>
  <path fill="#bab9b9" d="M111.76 127.14c.25.25.49.5.7.79h-.26c-.13-.13-.13-.13-.24-.3l-.12-.17c-.08-.15-.08-.15-.08-.32"/>
</svg>
